<?xml version="1.0" standalone="no"?>
<!DOCTYPE svg PUBLIC "-//W3C//DTD SVG 20010904//EN"
 "http://www.w3.org/TR/2001/REC-SVG-20010904/DTD/svg10.dtd">
<svg version="1.0" xmlns="http://www.w3.org/2000/svg"
 width="350.000000pt" height="350.000000pt" viewBox="0 0 350.000000 350.000000"
 preserveAspectRatio="xMidYMid meet">
<metadata>
Created by potrace 1.11, written by Peter Selinger 2001-2013
</metadata>
<g transform="translate(0.000000,350.000000) scale(0.100000,-0.100000)"
fill="#000000" stroke="none">
<path d="M1668 3234 c-18 -18 -6 -44 28 -60 58 -28 20 -32 -57 -7 -59 20 -81
23 -144 17 -85 -8 -117 -23 -97 -47 7 -8 27 -18 45 -21 l32 -7 -25 -14 c-14
-8 -37 -14 -53 -15 -15 0 -53 -9 -84 -20 -34 -12 -83 -20 -120 -20 -102 0
-200 -60 -269 -165 -17 -26 -17 -28 1 -41 11 -9 22 -10 30 -4 14 11 105 51
105 45 0 -2 -24 -20 -54 -39 -70 -45 -125 -101 -183 -188 -26 -40 -70 -96 -96
-125 -52 -56 -58 -86 -19 -91 15 -2 22 -9 18 -17 -24 -62 -30 -122 -32 -315
-1 -118 -4 -228 -6 -245 -3 -26 0 -30 22 -29 14 1 33 4 43 9 12 5 17 3 17 -9
0 -10 -9 -16 -25 -16 -30 0 -82 -49 -91 -85 -9 -38 3 -181 21 -240 8 -28 31
-77 51 -110 20 -33 49 -101 65 -152 31 -96 52 -123 96 -123 16 0 24 -8 29 -27
4 -16 12 -37 18 -48 6 -11 15 -42 21 -70 7 -36 16 -53 32 -60 12 -5 25 -22 28
-37 4 -16 11 -28 16 -28 5 0 20 -25 34 -55 13 -30 30 -55 38 -55 8 0 18 -15
23 -32 6 -22 20 -38 41 -48 19 -9 39 -31 52 -57 13 -27 27 -43 39 -43 11 0 26
-16 40 -45 15 -31 28 -45 42 -45 12 0 26 -12 35 -30 9 -16 23 -30 33 -30 9 0
25 -14 35 -31 14 -25 22 -30 43 -26 18 3 33 -3 50 -20 15 -15 31 -22 41 -19 9
4 23 0 32 -8 22 -20 67 -30 76 -17 4 8 15 5 32 -9 23 -18 37 -20 110 -16 59 3
91 9 111 22 15 11 38 21 52 24 14 3 30 17 38 33 9 19 19 26 29 23 18 -7 50 8
88 45 17 15 33 28 38 29 4 0 12 0 18 0 5 0 17 16 25 36 8 20 24 38 34 41 10 3
24 18 30 33 6 16 22 31 35 34 23 6 39 35 50 92 4 23 11 30 27 30 17 -1 29 13
54 64 18 36 44 76 58 90 14 14 31 40 37 58 6 18 19 37 29 42 10 5 22 24 25 42
4 18 11 38 15 43 4 6 11 25 15 42 5 26 12 33 29 33 35 0 55 30 86 127 15 48
44 115 64 148 20 33 43 82 51 110 18 59 30 202 21 238 -10 40 -50 77 -90 84
-36 6 -36 6 -36 54 0 64 0 65 31 61 35 -4 41 14 24 80 -9 34 -15 128 -17 265
-3 192 -2 210 13 197 24 -22 49 -18 49 9 0 27 -42 136 -73 187 -43 72 -120
161 -178 205 l-61 45 34 0 c45 0 59 15 47 49 -27 69 -104 112 -209 114 l-68 2
29 20 c19 13 28 27 27 40 -3 17 -13 21 -58 25 -66 6 -119 -3 -182 -31 l-47
-22 -33 28 c-59 50 -142 72 -154 41 -5 -12 -19 -8 -69 20 -45 25 -80 36 -126
40 -35 4 -67 3 -71 -2z m685 -764 c15 -7 27 -17 27 -21 0 -4 23 -21 50 -39 28
-18 50 -37 50 -44 0 -6 14 -38 30 -70 25 -49 30 -71 30 -130 0 -39 5 -87 11
-106 13 -40 20 -185 22 -445 2 -156 -1 -194 -21 -285 -36 -156 -61 -232 -75
-224 -7 4 -9 4 -5 -1 15 -16 -74 -163 -141 -235 l-68 -72 -7 41 c-4 29 -19 55
-47 86 -55 59 -146 89 -300 97 l-37 2 28 26 c16 15 32 40 35 56 4 16 9 35 11
43 5 17 -14 41 -32 41 -7 0 -16 -16 -20 -37 -4 -20 -16 -47 -27 -60 -17 -19
-30 -23 -81 -23 -93 0 -105 6 -117 56 -12 45 -33 62 -55 44 -17 -15 5 -92 36
-125 l21 -22 -67 -2 c-124 -3 -218 -36 -270 -93 -12 -13 -30 -47 -41 -76 l-20
-54 -61 67 c-51 56 -114 147 -131 190 -2 6 -14 33 -27 61 -13 28 -35 109 -49
180 -13 71 -31 149 -39 174 -24 73 -21 523 3 568 7 13 14 62 16 109 4 67 10
95 29 129 14 24 27 52 31 62 7 20 109 92 131 92 19 0 18 -10 -3 -25 -23 -17
-11 -40 34 -62 31 -14 63 -18 165 -18 120 0 127 -1 130 -20 3 -19 10 -20 113
-17 114 3 172 16 257 58 57 29 60 29 56 7 -2 -13 5 -19 25 -21 21 -3 43 8 84
38 30 23 65 53 76 66 12 14 44 31 72 39 27 9 57 19 64 24 14 9 31 5 104 -29z
m-1596 -740 c1 -14 -4 -20 -18 -20 -26 0 -24 -29 3 -39 17 -6 25 -21 34 -67 7
-32 24 -106 39 -163 28 -114 28 -142 0 -96 -10 17 -29 46 -42 67 -33 49 -51
115 -59 209 -6 64 -4 83 10 104 20 30 31 32 33 5z m2059 3 c14 -14 16 -29 10
-98 -7 -97 -29 -180 -54 -215 -29 -39 -59 -101 -67 -140 -4 -19 -14 -46 -21
-60 l-14 -25 5 25 c3 14 10 54 15 90 21 145 31 197 44 235 8 22 18 57 22 78 5
32 11 39 35 44 20 4 29 12 29 24 0 18 -10 23 -37 20 -7 -1 -13 7 -13 19 0 24
22 26 46 3z m-1943 -517 c6 -57 -5 -44 -28 31 -19 63 -19 70 4 42 10 -13 21
-46 24 -73z m897 -206 c11 -7 5 -8 -20 -4 -43 8 -51 14 -19 14 13 0 31 -5 39
-10z m47 4 c-3 -3 -12 -4 -19 -1 -8 3 -5 6 6 6 11 1 17 -2 13 -5z m130 -141
c74 -4 117 -11 124 -19 19 -24 -64 -35 -269 -37 -212 -2 -326 12 -315 39 4 10
24 14 67 14 61 1 191 22 202 33 4 3 23 -1 43 -9 20 -8 84 -18 148 -21z m-506
-90 c12 3 70 -1 128 -9 58 -8 135 -15 171 -16 75 0 304 18 338 28 13 4 22 2
22 -5 0 -6 9 -11 19 -11 19 0 19 -1 2 -64 -10 -36 -26 -77 -35 -91 -26 -40
-104 -85 -147 -85 -43 0 -54 11 -63 63 -4 21 -16 47 -27 58 -19 19 -19 19 19
20 61 2 87 13 90 38 3 20 1 22 -20 15 -102 -32 -227 -32 -336 2 -21 6 -23 4
-20 -17 3 -26 29 -36 93 -38 39 -1 39 -1 17 -17 -13 -9 -24 -30 -28 -54 -10
-61 -21 -69 -81 -61 -96 13 -163 93 -177 211 -5 36 -4 50 2 41 6 -8 19 -12 33
-8z"/>
<path d="M1935 2146 c-163 -23 -175 -23 -300 -9 -168 18 -334 21 -360 6 -16
-9 3 -11 95 -10 63 1 179 -5 258 -12 148 -15 139 -15 421 21 47 6 121 8 165 4
61 -4 76 -3 63 5 -35 21 -169 18 -342 -5z"/>
<path d="M1345 1904 c-77 -8 -151 -19 -165 -25 -35 -15 -100 -96 -100 -124 0
-41 39 -42 109 -5 56 30 67 32 168 34 65 0 132 -5 166 -13 74 -18 93 -9 91 45
-1 31 -9 45 -40 71 -42 37 -31 36 -229 17z"/>
<path d="M2000 1913 c-8 -3 -20 -12 -27 -19 -7 -7 -17 -14 -23 -16 -14 -4 -39
-78 -33 -95 8 -20 39 -25 85 -12 24 7 97 12 163 12 115 0 122 -1 183 -32 75
-38 106 -38 110 1 2 20 -7 39 -40 74 -23 25 -53 50 -65 55 -12 4 -80 13 -150
19 -70 6 -141 13 -158 15 -16 2 -37 1 -45 -2z"/>
<path d="M1280 1736 c-56 -18 -120 -62 -120 -81 0 -3 -2 -16 -6 -29 -5 -19 2
-32 33 -61 21 -20 48 -38 61 -42 12 -3 22 -9 22 -13 0 -5 48 -7 108 -7 90 2
115 6 154 25 26 13 60 27 75 31 18 5 29 15 31 29 5 31 -32 87 -74 112 -73 46
-205 62 -284 36z m30 -55 c-5 -11 -10 -36 -10 -56 0 -20 5 -45 10 -56 13 -24
1 -25 -43 -3 -76 38 -78 81 -4 115 53 24 60 24 47 0z m133 -7 c9 -9 -4 -34
-18 -34 -14 0 -27 25 -18 34 4 3 12 6 18 6 6 0 14 -3 18 -6z m85 -8 c27 -14
69 -54 61 -59 -17 -10 -89 -47 -91 -47 -2 0 -3 27 -3 60 0 33 1 60 3 60 2 0
15 -6 30 -14z"/>
<path d="M2085 1740 c-16 -6 -36 -8 -42 -5 -7 2 -13 0 -13 -4 0 -5 -13 -14
-29 -19 -47 -16 -92 -66 -98 -107 -4 -28 -1 -36 14 -41 10 -3 41 -16 68 -29
68 -32 156 -45 229 -34 67 11 87 20 144 68 l41 34 -19 36 c-22 45 -45 66 -92
85 -46 20 -164 29 -203 16z m179 -55 c20 -9 45 -24 56 -35 19 -19 19 -22 4
-46 -18 -27 -63 -54 -89 -54 -12 0 -14 4 -5 19 5 11 10 36 10 56 0 20 -5 45
-10 56 -13 23 -12 23 34 4z m-219 -65 c0 -33 -1 -60 -2 -60 -1 0 -23 10 -47
22 -39 18 -43 24 -35 40 9 17 65 58 79 58 3 0 5 -27 5 -60z m143 43 c5 -17
-26 -29 -40 -15 -6 6 -7 15 -3 22 9 14 37 9 43 -7z"/>
<path d="M1837 1633 c-4 -3 -7 -51 -7 -107 0 -145 35 -254 68 -213 7 8 7 27 0
57 -6 25 -13 96 -15 158 -4 99 -6 112 -22 112 -10 0 -21 -3 -24 -7z"/>
<path d="M1583 1496 c-16 -27 -116 -69 -180 -74 -37 -3 -60 -9 -56 -15 8 -13
104 -1 151 19 45 18 112 64 112 75 0 14 -18 10 -27 -5z"/>
<path d="M1930 1501 c0 -14 59 -56 105 -76 49 -20 160 -32 168 -18 4 6 -20 12
-62 15 -70 5 -146 35 -178 70 -18 20 -33 24 -33 9z"/>
<path d="M1548 1240 c-14 -30 -40 -71 -57 -90 -19 -21 -26 -37 -19 -39 24 -8
116 141 106 171 -3 7 -16 -12 -30 -42z"/>
<path d="M1970 1275 c0 -34 96 -179 111 -169 5 3 -7 24 -25 49 -19 24 -42 62
-52 84 -16 35 -34 53 -34 36z"/>
</g>
</svg>
